<svg width="20" height="20" viewBox="0 0 24 24" fill="currentColor" xmlns="http://www.w3.org/2000/svg">
  <path d="M12.017 0C5.396 0 .029 5.367.029 11.987c0 6.62 5.367 11.987 11.988 11.987 6.62 0 11.987-5.367 11.987-11.987C24.014 5.367 18.637.001 12.017.001zM8.449 16.988c-1.297 0-2.348-1.051-2.348-2.348 0-1.297 1.051-2.348 2.348-2.348 1.297 0 2.348 1.051 2.348 2.348 0 1.297-1.051 2.348-2.348 2.348zm7.718 0c-1.297 0-2.348-1.051-2.348-2.348 0-1.297 1.051-2.348 2.348-2.348 1.297 0 2.348 1.051 2.348 2.348 0 1.297-1.051 2.348-2.348 2.348z"/>
</svg>
