<svg width="20" height="20" viewBox="0 0 20 20" fill="none" xmlns="http://www.w3.org/2000/svg">
<path d="M18.896 0H1.104C0.494 0 0 0.494 0 1.104V13.104C0 13.714 0.494 14.208 1.104 14.208H6.208V16.416C6.208 17.026 6.702 17.52 7.312 17.52H8.416C9.026 17.52 9.52 17.026 9.52 16.416V14.208H10.48V16.416C10.48 17.026 10.974 17.52 11.584 17.52H12.688C13.298 17.52 13.792 17.026 13.792 16.416V14.208H18.896C19.506 14.208 20 13.714 20 13.104V1.104C20 0.494 19.506 0 18.896 0ZM17.792 12H2.208V2.208H17.792V12Z" fill="white"/>
</svg>
