<svg width="20" height="20" viewBox="0 0 20 20" fill="none" xmlns="http://www.w3.org/2000/svg">
<path d="M20 3.924C19.264 4.256 18.473 4.477 17.643 4.574C18.494 4.043 19.141 3.221 19.447 2.246C18.656 2.738 17.777 3.094 16.842 3.279C16.094 2.464 15.027 1.958 13.847 1.958C11.581 1.958 9.743 3.796 9.743 6.062C9.743 6.388 9.781 6.704 9.853 7.007C6.44 6.837 3.416 5.201 1.392 2.728C1.039 3.318 0.837 4.043 0.837 4.818C0.837 6.287 1.588 7.584 2.733 8.344C2.04 8.321 1.388 8.135 0.814 7.827V7.882C0.814 9.862 2.225 11.516 4.1 11.903C3.757 11.997 3.394 12.046 3.02 12.046C2.755 12.046 2.498 12.021 2.246 11.975C2.77 13.601 4.274 14.783 6.07 14.817C4.672 15.901 2.901 16.543 0.978 16.543C0.647 16.543 0.321 16.524 0 16.487C1.816 17.633 3.973 18.292 6.29 18.292C13.838 18.292 17.965 12.115 17.965 6.548C17.965 6.368 17.961 6.189 17.952 6.012C18.754 5.415 19.449 4.669 20 3.924Z" fill="white"/>
</svg>
