<svg width="32" height="32" viewBox="0 0 32 32" fill="none" xmlns="http://www.w3.org/2000/svg">
<path d="M16 4C17.1 4 18 4.9 18 6V8C18 9.1 17.1 10 16 10C14.9 10 14 9.1 14 8V6C14 4.9 14.9 4 16 4Z" fill="white"/>
<path d="M24 14H26C27.1 14 28 14.9 28 16C28 17.1 27.1 18 26 18H24C22.9 18 22 17.1 22 16C22 14.9 22.9 14 24 14Z" fill="white"/>
<path d="M6 14H8C9.1 14 10 14.9 10 16C10 17.1 9.1 18 8 18H6C4.9 18 4 17.1 4 16C4 14.9 4.9 14 6 14Z" fill="white"/>
<circle cx="16" cy="16" r="6" stroke="white" stroke-width="2" fill="none"/>
</svg>
