<svg width="20" height="20" viewBox="0 0 20 20" fill="none" xmlns="http://www.w3.org/2000/svg">
<path d="M18.52 0H1.48C0.663 0 0 0.663 0 1.48V18.52C0 19.337 0.663 20 1.48 20H18.52C19.337 20 20 19.337 20 18.52V1.48C20 0.663 19.337 0 18.52 0ZM5.93 17.04H2.96V7.5H5.93V17.04ZM4.445 6.195C3.505 6.195 2.745 5.435 2.745 4.495C2.745 3.555 3.505 2.795 4.445 2.795C5.385 2.795 6.145 3.555 6.145 4.495C6.145 5.435 5.385 6.195 4.445 6.195ZM17.04 17.04H14.07V12.42C14.07 11.34 14.05 9.97 12.59 9.97C11.11 9.97 10.89 11.13 10.89 12.34V17.04H7.92V7.5H10.77V8.76H10.81C11.19 8.05 12.15 7.3 13.58 7.3C16.59 7.3 17.04 9.24 17.04 11.82V17.04Z" fill="white"/>
</svg>
